<svg id="visual" viewBox="0 0 900 600" width="900" height="600" xmlns="http://www.w3.org/2000/svg" xmlns:xlink="http://www.w3.org/1999/xlink" version="1.1"><rect x="0" y="0" width="900" height="600" fill="#f8f8f8" fill-opacity="0"></rect><path d="M0 396L21.5 388.3C43 380.7 86 365.3 128.8 368.2C171.7 371 214.3 392 257.2 408.2C300 424.3 343 435.7 385.8 425C428.7 414.3 471.3 381.7 514.2 363.7C557 345.7 600 342.3 642.8 349.8C685.7 357.3 728.3 375.7 771.2 376.8C814 378 857 362 878.5 354L900 346L900 601L878.5 601C857 601 814 601 771.2 601C728.3 601 685.7 601 642.8 601C600 601 557 601 514.2 601C471.3 601 428.7 601 385.8 601C343 601 300 601 257.2 601C214.3 601 171.7 601 128.8 601C86 601 43 601 21.5 601L0 601Z" fill="#1c1c1c"></path><path d="M0 403L21.5 412.5C43 422 86 441 128.8 441.5C171.7 442 214.3 424 257.2 415.5C300 407 343 408 385.8 418.5C428.7 429 471.3 449 514.2 443.5C557 438 600 407 642.8 396.7C685.7 386.3 728.3 396.7 771.2 400.7C814 404.7 857 402.3 878.5 401.2L900 400L900 601L878.5 601C857 601 814 601 771.2 601C728.3 601 685.7 601 642.8 601C600 601 557 601 514.2 601C471.3 601 428.7 601 385.8 601C343 601 300 601 257.2 601C214.3 601 171.7 601 128.8 601C86 601 43 601 21.5 601L0 601Z" fill="#171717"></path><path d="M0 454L21.5 452C43 450 86 446 128.8 442.8C171.7 439.7 214.3 437.3 257.2 444.8C300 452.3 343 469.7 385.8 480.5C428.7 491.3 471.3 495.7 514.2 485.8C557 476 600 452 642.8 452.2C685.7 452.3 728.3 476.7 771.2 478.7C814 480.7 857 460.3 878.5 450.2L900 440L900 601L878.5 601C857 601 814 601 771.2 601C728.3 601 685.7 601 642.8 601C600 601 557 601 514.2 601C471.3 601 428.7 601 385.8 601C343 601 300 601 257.2 601C214.3 601 171.7 601 128.8 601C86 601 43 601 21.5 601L0 601Z" fill="#111111"></path><path d="M0 528L21.5 530.5C43 533 86 538 128.8 531.5C171.7 525 214.3 507 257.2 506.2C300 505.3 343 521.7 385.8 530.8C428.7 540 471.3 542 514.2 543.2C557 544.3 600 544.7 642.8 541.5C685.7 538.3 728.3 531.7 771.2 521C814 510.3 857 495.7 878.5 488.3L900 481L900 601L878.5 601C857 601 814 601 771.2 601C728.3 601 685.7 601 642.8 601C600 601 557 601 514.2 601C471.3 601 428.7 601 385.8 601C343 601 300 601 257.2 601C214.3 601 171.7 601 128.8 601C86 601 43 601 21.5 601L0 601Z" fill="#090909"></path><path d="M0 519L21.5 525.5C43 532 86 545 128.8 544.2C171.7 543.3 214.3 528.7 257.2 530.5C300 532.3 343 550.7 385.8 559.8C428.7 569 471.3 569 514.2 568.7C557 568.3 600 567.7 642.8 569C685.7 570.3 728.3 573.7 771.2 575C814 576.3 857 575.7 878.5 575.3L900 575L900 601L878.5 601C857 601 814 601 771.2 601C728.3 601 685.7 601 642.8 601C600 601 557 601 514.2 601C471.3 601 428.7 601 385.8 601C343 601 300 601 257.2 601C214.3 601 171.7 601 128.8 601C86 601 43 601 21.5 601L0 601Z" fill="#000000"></path></svg>