<svg id="visual" viewBox="0 0 1200 200" width="1200" height="200" xmlns="http://www.w3.org/2000/svg" xmlns:xlink="http://www.w3.org/1999/xlink" version="1.1"><path d="M0 53L28.5 57.3C57 61.7 114 70.3 171.2 67.8C228.3 65.3 285.7 51.7 342.8 50.7C400 49.7 457 61.3 514.2 64.2C571.3 67 628.7 61 685.8 62.7C743 64.3 800 73.7 857.2 70.7C914.3 67.7 971.7 52.3 1028.8 49.3C1086 46.3 1143 55.7 1171.5 60.3L1200 65L1200 201L1171.5 201C1143 201 1086 201 1028.8 201C971.7 201 914.3 201 857.2 201C800 201 743 201 685.8 201C628.7 201 571.3 201 514.2 201C457 201 400 201 342.8 201C285.7 201 228.3 201 171.2 201C114 201 57 201 28.5 201L0 201Z" fill="#222222"></path><path d="M0 64L28.5 71C57 78 114 92 171.2 100.3C228.3 108.7 285.7 111.3 342.8 104.5C400 97.7 457 81.3 514.2 79C571.3 76.7 628.7 88.3 685.8 97C743 105.7 800 111.3 857.2 107.8C914.3 104.3 971.7 91.7 1028.8 87.7C1086 83.7 1143 88.3 1171.5 90.7L1200 93L1200 201L1171.5 201C1143 201 1086 201 1028.8 201C971.7 201 914.3 201 857.2 201C800 201 743 201 685.8 201C628.7 201 571.3 201 514.2 201C457 201 400 201 342.8 201C285.7 201 228.3 201 171.2 201C114 201 57 201 28.5 201L0 201Z" fill="#1b1b1b"></path><path d="M0 93L28.5 98.7C57 104.3 114 115.7 171.2 122.3C228.3 129 285.7 131 342.8 126.3C400 121.7 457 110.3 514.2 104.2C571.3 98 628.7 97 685.8 97.5C743 98 800 100 857.2 104.7C914.3 109.3 971.7 116.7 1028.8 116.3C1086 116 1143 108 1171.5 104L1200 100L1200 201L1171.5 201C1143 201 1086 201 1028.8 201C971.7 201 914.3 201 857.2 201C800 201 743 201 685.8 201C628.7 201 571.3 201 514.2 201C457 201 400 201 342.8 201C285.7 201 228.3 201 171.2 201C114 201 57 201 28.5 201L0 201Z" fill="#151515"></path><path d="M0 145L28.5 141.7C57 138.3 114 131.7 171.2 127.8C228.3 124 285.7 123 342.8 128.5C400 134 457 146 514.2 149.7C571.3 153.3 628.7 148.7 685.8 144.5C743 140.3 800 136.7 857.2 133.2C914.3 129.7 971.7 126.3 1028.8 130.8C1086 135.3 1143 147.7 1171.5 153.8L1200 160L1200 201L1171.5 201C1143 201 1086 201 1028.8 201C971.7 201 914.3 201 857.2 201C800 201 743 201 685.8 201C628.7 201 571.3 201 514.2 201C457 201 400 201 342.8 201C285.7 201 228.3 201 171.2 201C114 201 57 201 28.5 201L0 201Z" fill="#0c0c0c"></path><path d="M0 175L28.5 173.8C57 172.7 114 170.3 171.2 167.8C228.3 165.3 285.7 162.7 342.8 163.7C400 164.7 457 169.3 514.2 168.2C571.3 167 628.7 160 685.8 157.5C743 155 800 157 857.2 157.8C914.3 158.7 971.7 158.3 1028.8 159.8C1086 161.3 1143 164.7 1171.5 166.3L1200 168L1200 201L1171.5 201C1143 201 1086 201 1028.8 201C971.7 201 914.3 201 857.2 201C800 201 743 201 685.8 201C628.7 201 571.3 201 514.2 201C457 201 400 201 342.8 201C285.7 201 228.3 201 171.2 201C114 201 57 201 28.5 201L0 201Z" fill="#000000"></path></svg>